HIERARCHY
ROOT Hips
{
	OFFSET -3.958830 18.904000 13.208200
	CHANNELS 6 Xposition Yposition Zposition Zrotation Yrotation Xrotation 
	JOINT LHipJoint
	{
		OFFSET 0.000000 0.000000 0.000000
		CHANNELS 3 Zrotation Yrotation Xrotation
		JOINT LeftUpLeg
		{
			OFFSET 1.800000 -1.400000 0.085000
			CHANNELS 3 Zrotation Yrotation Xrotation
			JOINT LeftLeg
			{
				OFFSET 2.215000 -6.000000 0.000000
				CHANNELS 3 Zrotation Yrotation Xrotation
				JOINT LeftFoot
				{
					OFFSET 2.500000 -6.900000 0.000000
					CHANNELS 3 Zrotation Yrotation Xrotation
					JOINT LeftToeBase
					{
						OFFSET 0.200000 -0.500000 1.950000
						CHANNELS 3 Zrotation Yrotation Xrotation
						End Site
						{
							OFFSET 0.000000 0.000000 0.000000
						}
					}
				}
			}
		}
	}
	JOINT RHipJoint
	{
		OFFSET 0.000000 0.000000 0.000000
		CHANNELS 3 Zrotation Yrotation Xrotation
		JOINT RightUpLeg
		{
			OFFSET -1.800000 -1.400000 0.085000
			CHANNELS 3 Zrotation Yrotation Xrotation
			JOINT RightLeg
			{
				OFFSET -2.215000 -6.000000 0.000000
				CHANNELS 3 Zrotation Yrotation Xrotation
				JOINT RightFoot
				{
					OFFSET -2.500000 -6.900000 0.000000
					CHANNELS 3 Zrotation Yrotation Xrotation
					JOINT RightToeBase
					{
						OFFSET -0.200000 -0.500000 1.950000
						CHANNELS 3 Zrotation Yrotation Xrotation
						End Site
						{
							OFFSET 0.000000 0.000000 0.000000
						}
					}
				}
			}
		}
	}
	JOINT LowerBack
	{
		OFFSET 0.000000 0.000000 0.000000
		CHANNELS 3 Zrotation Yrotation Xrotation
		JOINT Spine
		{
			OFFSET -0.087000 1.940000 -0.288900
			CHANNELS 3 Zrotation Yrotation Xrotation
			JOINT Spine1
			{
				OFFSET 0.000000 1.950000 0.060000
				CHANNELS 3 Zrotation Yrotation Xrotation
				JOINT Neck
				{
					OFFSET 0.000000 0.000000 0.000000
					CHANNELS 3 Zrotation Yrotation Xrotation
					JOINT Neck1
					{
						OFFSET 0.000000 1.600000 0.340000
						CHANNELS 3 Zrotation Yrotation Xrotation
						JOINT Head
						{
							OFFSET 0.000000 1.667000 -0.240000
							CHANNELS 3 Zrotation Yrotation Xrotation
							End Site
							{
								OFFSET 0.000000 0.000000 0.000000
							}
						}
					}
				}
				JOINT LeftShoulder
				{
					OFFSET 0.000000 0.000000 0.000000
					CHANNELS 3 Zrotation Yrotation Xrotation
					JOINT LeftArm
					{
						OFFSET 2.700000 1.550000 -0.730000
						CHANNELS 3 Zrotation Yrotation Xrotation
						JOINT LeftForeArm
						{
							OFFSET 5.450000 0.000000 0.000000
							CHANNELS 3 Zrotation Yrotation Xrotation
							JOINT LeftHand
							{
								OFFSET 3.450000 0.000000 0.000000
								CHANNELS 3 Zrotation Yrotation Xrotation
								JOINT LeftHandIndex1
								{
									OFFSET 0.750000 0.000000 0.000000
									CHANNELS 3 Zrotation Yrotation Xrotation
									End Site
									{
										OFFSET 0.000000 0.000000 0.000000
									}
								}
							}
						}
					}
				}
				JOINT RightShoulder
				{
					OFFSET 0.000000 0.000000 0.000000
					CHANNELS 3 Zrotation Yrotation Xrotation
					JOINT RightArm
					{
						OFFSET -2.700000 1.550000 -0.730000
						CHANNELS 3 Zrotation Yrotation Xrotation
						JOINT RightForeArm
						{
							OFFSET -5.450000 0.000000 0.000000
							CHANNELS 3 Zrotation Yrotation Xrotation
							JOINT RightHand
							{
								OFFSET -3.450000 0.000000 0.000000
								CHANNELS 3 Zrotation Yrotation Xrotation
								JOINT RightHandIndex1
								{
									OFFSET -0.750000 0.000000 0.000000
									CHANNELS 3 Zrotation Yrotation Xrotation
									End Site
									{
										OFFSET 0.000000 0.000000 0.000000
									}
								}
							}
						}
					}
				}
			}
		}
	}
}
MOTION
Frames: 4
Frame Time: 0.016667
0.607070 16.772560 -2.994110 1.068804 25.484077 -11.008210 -14.703657 12.152116 3.237024 -0.172846 1.309800 5.428507 -13.087031 6.505686 5.709487 1.097247 3.798027 3.122636 1.011710 1.031760 1.034760 18.720354 -12.131818 2.521799 -7.329353 2.596902 -24.590932 -2.678408 -7.836424 49.152707 -1.449873 -6.523238 1.731148 0.013150 -0.919400 0.451140 -5.696833 1.924046 -8.006660 36.508860 -20.487800 21.285189 -40.901718 -4.191049 7.545563 11.495903 9.557412 -22.083557 13.232252 -18.906846 59.741002 0.998890 -13.246410 -20.476100 -23.922174 -19.690808 8.839239 -31.546174 2.992495 -7.657534 -15.899041 -18.794746 1.224712 -2.103860 3.786206 0.473480 -0.726660 1.151650 0.303350 -3.892769 19.412241 16.799790 -12.379520 -6.627427 -0.522869 -5.883029 -0.260057 0.221391 3.579323 -0.837704 0.774750 -0.455320 -0.956340 0.205010 
0.609120 16.772590 -2.994360 1.103501 25.526992 -10.947955 -14.703946 12.147326 3.236547 -0.230135 1.319274 5.404479 -13.095625 6.503629 5.694803 1.101392 3.787442 3.124726 1.011940 1.033370 1.035890 18.721471 -12.127992 2.523614 -7.432860 2.590852 -24.679686 -2.602669 -7.897517 49.213551 -1.450565 -6.535526 1.728198 0.011910 -0.923850 0.447480 -5.698948 1.920248 -8.008306 36.602066 -20.513076 21.208459 -40.960165 -4.205506 7.488130 11.488121 9.529820 -22.100939 13.121809 -18.909464 59.824343 1.018070 -13.300710 -20.487870 -23.873371 -19.652262 8.833904 -31.617713 3.075034 -7.695233 -15.911279 -18.860750 1.237510 -2.099041 3.787711 0.471590 -0.729850 1.152390 0.302580 -3.924356 19.407254 16.817515 -12.344109 -6.691253 -0.550177 -6.041596 -0.132787 0.229979 3.583533 -0.843853 0.776960 -0.456800 -0.958910 0.205500 
0.613030 16.772010 -2.994300 1.160057 25.612747 -10.815218 -14.705002 12.139028 3.236025 -0.341936 1.342863 5.355320 -13.089270 6.486165 5.617860 1.104850 3.771324 3.129731 1.006060 1.028960 1.030660 18.723331 -12.118018 2.528342 -7.614084 2.590207 -24.860879 -2.475275 -8.008273 49.330882 -1.451914 -6.561570 1.720646 0.006400 -0.923880 0.444820 -5.701622 1.909857 -8.011997 36.800644 -20.509444 21.027901 -41.044950 -4.213028 7.353770 11.468256 9.472889 -22.094908 12.916729 -18.904683 59.946419 1.031330 -13.416050 -20.434900 -23.816102 -19.589104 8.836729 -31.752934 3.232453 -7.733314 -15.953917 -18.935341 1.252827 -2.098800 3.787040 0.469050 -0.731160 1.151220 0.301370 -3.925722 19.378748 16.817428 -12.374977 -6.828956 -0.593226 -6.245034 0.142973 0.245436 3.582097 -0.853258 0.778520 -0.456600 -0.956400 0.207500 
0.618690 16.771320 -2.993920 1.221183 25.737219 -10.638534 -14.707960 12.132943 3.235060 -0.488167 1.372486 5.283684 -13.045702 6.456947 5.531687 1.110042 3.748838 3.136417 1.000890 1.024800 1.026690 18.723722 -12.101790 2.535450 -7.864127 2.580379 -25.097572 -2.262484 -8.181669 49.459913 -1.456992 -6.595919 1.709225 -0.002140 -0.924040 0.447090 -5.700379 1.882953 -8.014966 37.043818 -20.492203 20.767730 -41.130674 -4.222717 7.183806 11.445449 9.444347 -22.124330 12.784395 -18.951558 60.155464 0.932420 -13.518220 -20.348530 -23.741323 -19.539964 8.867320 -31.965745 3.469761 -7.789313 -15.967073 -19.037852 1.264547 -2.099154 3.788432 0.467120 -0.732410 1.154070 0.301640 -3.940585 19.355169 16.819814 -12.337774 -6.968517 -0.644239 -6.491186 0.524881 0.268450 3.579095 -0.867164 0.783720 -0.458060 -0.954340 0.211380 
